<svg width="19" height="18" viewBox="0 0 19 18" fill="none" xmlns="http://www.w3.org/2000/svg">
<path d="M13.7628 15.9231H5.23717C4.91415 15.9231 4.60436 15.8015 4.37595 15.5851C4.14755 15.3687 4.01923 15.0752 4.01923 14.7692V4.38461H14.9808V14.7692C14.9808 15.0752 14.8524 15.3687 14.624 15.5851C14.3956 15.8015 14.0858 15.9231 13.7628 15.9231Z" stroke="#718096" stroke-linecap="round" stroke-linejoin="round"/>
<path d="M7.67303 12.4615V7.84615" stroke="#718096" stroke-linecap="round" stroke-linejoin="round"/>
<path d="M11.3269 12.4615V7.84615" stroke="#718096" stroke-linecap="round" stroke-linejoin="round"/>
<path d="M1.58331 4.38461H17.4166" stroke="#718096" stroke-linecap="round" stroke-linejoin="round"/>
<path d="M11.3269 2.07692H7.67303C7.35001 2.07692 7.04022 2.19849 6.81181 2.41487C6.5834 2.63126 6.45508 2.92475 6.45508 3.23077V4.38461H12.5448V3.23077C12.5448 2.92475 12.4165 2.63126 12.1881 2.41487C11.9597 2.19849 11.6499 2.07692 11.3269 2.07692Z" stroke="#718096" stroke-linecap="round" stroke-linejoin="round"/>
</svg>
