<svg width="21" height="21" viewBox="0 0 21 21" fill="none" xmlns="http://www.w3.org/2000/svg">
<g clip-path="url(#clip0_1_141)">
<path d="M18.4444 4.38889H2.55556C1.88054 4.38889 1.33333 4.93609 1.33333 5.61111V15.3889C1.33333 16.0639 1.88054 16.6111 2.55556 16.6111H18.4444C19.1195 16.6111 19.6667 16.0639 19.6667 15.3889V5.61111C19.6667 4.93609 19.1195 4.38889 18.4444 4.38889Z" stroke="#718096" stroke-width="1.5" stroke-linecap="round" stroke-linejoin="round"/>
<path d="M10.3612 12.9273C11.7112 12.9273 12.8056 11.8329 12.8056 10.4828C12.8056 9.13281 11.7112 8.03839 10.3612 8.03839C9.01117 8.03839 7.91676 9.13281 7.91676 10.4828C7.91676 11.8329 9.01117 12.9273 10.3612 12.9273Z" stroke="#718096" stroke-width="1.5" stroke-linecap="round" stroke-linejoin="round"/>
</g>
<defs>
<clipPath id="clip0_1_141">
<rect width="20" height="20" fill="white" transform="translate(0.5 0.5)"/>
</clipPath>
</defs>
</svg>
