<svg width="19" height="18" viewBox="0 0 19 18" fill="none" xmlns="http://www.w3.org/2000/svg">
<path d="M9.97139 10.4243L7.35936 10.7783L7.73231 8.30304L14.4496 1.93932C14.7465 1.65803 15.1492 1.5 15.5691 1.5C15.989 1.5 16.3917 1.65803 16.6886 1.93932C16.9856 2.22062 17.1524 2.60213 17.1524 2.99994C17.1524 3.39775 16.9856 3.77927 16.6886 4.06056L9.97139 10.4243Z" stroke="#718096" stroke-linecap="round" stroke-linejoin="round"/>
<path d="M14.5136 10.5003V15.5C14.5136 15.7652 14.4024 16.0196 14.2044 16.2071C14.0065 16.3946 13.738 16.5 13.4581 16.5H2.903C2.62306 16.5 2.35459 16.3946 2.15664 16.2071C1.95869 16.0196 1.84749 15.7652 1.84749 15.5V5.50049C1.84749 5.23528 1.95869 4.98094 2.15664 4.79341C2.35459 4.60589 2.62306 4.50053 2.903 4.50053H8.18054" stroke="#718096" stroke-linecap="round" stroke-linejoin="round"/>
</svg>
