<svg width="20" height="21" viewBox="0 0 20 21" fill="none" xmlns="http://www.w3.org/2000/svg">
<path d="M1.66687 10.1996C1.66687 12.4097 2.54484 14.5294 4.10765 16.0922C5.67045 17.655 7.79007 18.5329 10.0002 18.5329C12.2103 18.5329 14.33 17.655 15.8928 16.0922C17.4556 14.5294 18.3335 12.4097 18.3335 10.1996C18.3335 7.98947 17.4556 5.86985 15.8928 4.30705C14.33 2.74425 12.2103 1.86627 10.0002 1.86627C7.79007 1.86627 5.67045 2.74425 4.10765 4.30705C2.54484 5.86985 1.66687 7.98947 1.66687 10.1996V10.1996Z" stroke="white" stroke-width="1.5" stroke-linecap="round" stroke-linejoin="round"/>
<path d="M8.33356 11.8663C8.33356 12.1959 8.43131 12.5181 8.61444 12.7922C8.79758 13.0663 9.05788 13.2799 9.36242 13.4061C9.66696 13.5322 10.0021 13.5652 10.3254 13.5009C10.6487 13.4366 10.9456 13.2779 11.1787 13.0448C11.4118 12.8117 11.5706 12.5147 11.6349 12.1914C11.6992 11.8681 11.6662 11.533 11.54 11.2285C11.4139 10.9239 11.2003 10.6636 10.9262 10.4805C10.6521 10.2974 10.3299 10.1996 10.0002 10.1996C9.67059 10.1996 9.34836 10.1019 9.07427 9.91872C8.80019 9.73559 8.58657 9.47529 8.46043 9.17074C8.33428 8.8662 8.30127 8.53109 8.36558 8.20779C8.42989 7.88449 8.58863 7.58752 8.82171 7.35443C9.0548 7.12134 9.35177 6.96261 9.67507 6.8983C9.99838 6.83399 10.3335 6.86699 10.638 6.99314C10.9426 7.11929 11.2029 7.33291 11.386 7.60699C11.5691 7.88107 11.6669 8.2033 11.6669 8.53294" stroke="white" stroke-width="1.5" stroke-linecap="round" stroke-linejoin="round"/>
<path d="M10.0002 5.75516V6.86627" stroke="white" stroke-width="1.5" stroke-linecap="round" stroke-linejoin="round"/>
<path d="M10.0002 13.5329V14.6441" stroke="white" stroke-width="1.5" stroke-linecap="round" stroke-linejoin="round"/>
</svg>
