<svg width="19" height="18" viewBox="0 0 19 18" fill="none" xmlns="http://www.w3.org/2000/svg">
<path d="M13.7627 15.9231H5.23706C4.91404 15.9231 4.60425 15.8015 4.37584 15.5851C4.14743 15.3687 4.01911 15.0752 4.01911 14.7692V4.38461H14.9807V14.7692C14.9807 15.0752 14.8523 15.3687 14.6239 15.5851C14.3955 15.8015 14.0857 15.9231 13.7627 15.9231Z" stroke="#718096" stroke-linecap="round" stroke-linejoin="round"/>
<path d="M7.67296 12.4615V7.84615" stroke="#718096" stroke-linecap="round" stroke-linejoin="round"/>
<path d="M11.3268 12.4615V7.84615" stroke="#718096" stroke-linecap="round" stroke-linejoin="round"/>
<path d="M1.58321 4.38461H17.4165" stroke="#718096" stroke-linecap="round" stroke-linejoin="round"/>
<path d="M11.3268 2.07692H7.67296C7.34994 2.07692 7.04015 2.19849 6.81174 2.41487C6.58333 2.63126 6.45501 2.92475 6.45501 3.23077V4.38461H12.5448V3.23077C12.5448 2.92475 12.4164 2.63126 12.188 2.41487C11.9596 2.19849 11.6498 2.07692 11.3268 2.07692Z" stroke="#718096" stroke-linecap="round" stroke-linejoin="round"/>
</svg>
