<svg width="19" height="18" viewBox="0 0 19 18" fill="none" xmlns="http://www.w3.org/2000/svg">
<path d="M9.97132 10.4243L7.35929 10.7783L7.73224 8.30304L14.4495 1.93932C14.7464 1.65803 15.1491 1.5 15.569 1.5C15.9889 1.5 16.3917 1.65803 16.6886 1.93932C16.9855 2.22062 17.1523 2.60213 17.1523 2.99994C17.1523 3.39775 16.9855 3.77927 16.6886 4.06056L9.97132 10.4243Z" stroke="#718096" stroke-linecap="round" stroke-linejoin="round"/>
<path d="M14.5135 10.5003V15.5C14.5135 15.7652 14.4023 16.0196 14.2044 16.2071C14.0064 16.3946 13.7379 16.5 13.458 16.5H2.90293C2.62299 16.5 2.35452 16.3946 2.15657 16.2071C1.95862 16.0196 1.84742 15.7652 1.84742 15.5V5.50049C1.84742 5.23528 1.95862 4.98094 2.15657 4.79341C2.35452 4.60589 2.62299 4.50053 2.90293 4.50053H8.18047" stroke="#718096" stroke-linecap="round" stroke-linejoin="round"/>
</svg>
