<svg width="12" height="12" viewBox="0 0 12 12" fill="none" xmlns="http://www.w3.org/2000/svg">
<g clip-path="url(#clip0_1_191)">
<path d="M1.89322 5.90865C1.89322 7.12423 2.3761 8.29002 3.23565 9.14956C4.09519 10.0091 5.26098 10.492 6.47655 10.492C7.69213 10.492 8.85792 10.0091 9.71746 9.14956C10.577 8.29002 11.0599 7.12423 11.0599 5.90865C11.0599 4.69308 10.577 3.52729 9.71746 2.66774C8.85792 1.8082 7.69213 1.32532 6.47655 1.32532C5.26098 1.32532 4.09519 1.8082 3.23565 2.66774C2.3761 3.52729 1.89322 4.69308 1.89322 5.90865V5.90865Z" stroke="#1A202C" stroke-width="0.8" stroke-linecap="round" stroke-linejoin="round"/>
<path d="M5.55988 6.82532C5.55988 7.00662 5.61364 7.18385 5.71436 7.33459C5.81509 7.48534 5.95825 7.60283 6.12575 7.67221C6.29325 7.74159 6.47756 7.75974 6.65538 7.72437C6.83319 7.689 6.99653 7.6017 7.12472 7.4735C7.25292 7.3453 7.34023 7.18197 7.3756 7.00415C7.41097 6.82633 7.39281 6.64202 7.32343 6.47452C7.25405 6.30703 7.13656 6.16386 6.98582 6.06314C6.83507 5.96241 6.65784 5.90865 6.47654 5.90865C6.29524 5.90865 6.11801 5.85489 5.96727 5.75417C5.81652 5.65344 5.69903 5.51028 5.62965 5.34278C5.56027 5.17528 5.54212 4.99097 5.57749 4.81315C5.61286 4.63534 5.70016 4.472 5.82836 4.3438C5.95656 4.21561 6.11989 4.1283 6.29771 4.09293C6.47553 4.05756 6.65984 4.07571 6.82734 4.14509C6.99483 4.21448 7.138 4.33197 7.23872 4.48271C7.33945 4.63346 7.39321 4.81068 7.39321 4.99198" stroke="#1A202C" stroke-width="0.8" stroke-linecap="round" stroke-linejoin="round"/>
<path d="M6.47656 3.4642V4.07531" stroke="#1A202C" stroke-width="0.8" stroke-linecap="round" stroke-linejoin="round"/>
<path d="M6.47656 7.74198V8.35309" stroke="#1A202C" stroke-width="0.8" stroke-linecap="round" stroke-linejoin="round"/>
</g>
<defs>
<clipPath id="clip0_1_191">
<rect width="11" height="11" fill="white" transform="translate(0.97644 0.573868)"/>
</clipPath>
</defs>
</svg>
