<svg width="12" height="12" viewBox="0 0 12 12" fill="none" xmlns="http://www.w3.org/2000/svg">
<g clip-path="url(#clip0_1_240)">
<path d="M1.89317 5.90865C1.89317 7.12423 2.37606 8.29002 3.2356 9.14956C4.09514 10.0091 5.26093 10.492 6.47651 10.492C7.69208 10.492 8.85787 10.0091 9.71741 9.14956C10.577 8.29002 11.0598 7.12423 11.0598 5.90865C11.0598 4.69308 10.577 3.52729 9.71741 2.66774C8.85787 1.8082 7.69208 1.32532 6.47651 1.32532C5.26093 1.32532 4.09514 1.8082 3.2356 2.66774C2.37606 3.52729 1.89317 4.69308 1.89317 5.90865V5.90865Z" stroke="#1A202C" stroke-width="0.8" stroke-linecap="round" stroke-linejoin="round"/>
<path d="M5.55984 6.82532C5.55984 7.00662 5.6136 7.18385 5.71433 7.33459C5.81505 7.48534 5.95821 7.60283 6.12571 7.67221C6.29321 7.74159 6.47752 7.75974 6.65534 7.72437C6.83316 7.689 6.99649 7.6017 7.12469 7.4735C7.25289 7.3453 7.34019 7.18197 7.37556 7.00415C7.41093 6.82633 7.39278 6.64202 7.3234 6.47452C7.25402 6.30703 7.13652 6.16386 6.98578 6.06314C6.83503 5.96241 6.65781 5.90865 6.47651 5.90865C6.29521 5.90865 6.11798 5.85489 5.96723 5.75417C5.81649 5.65344 5.699 5.51028 5.62962 5.34278C5.56024 5.17528 5.54208 4.99097 5.57745 4.81315C5.61282 4.63534 5.70013 4.472 5.82833 4.3438C5.95652 4.21561 6.11986 4.1283 6.29767 4.09293C6.47549 4.05756 6.6598 4.07571 6.8273 4.14509C6.9948 4.21448 7.13796 4.33197 7.23869 4.48271C7.33941 4.63346 7.39317 4.81068 7.39317 4.99198" stroke="#1A202C" stroke-width="0.8" stroke-linecap="round" stroke-linejoin="round"/>
<path d="M6.47651 3.4642V4.07531" stroke="#1A202C" stroke-width="0.8" stroke-linecap="round" stroke-linejoin="round"/>
<path d="M6.47651 7.74198V8.35309" stroke="#1A202C" stroke-width="0.8" stroke-linecap="round" stroke-linejoin="round"/>
</g>
<defs>
<clipPath id="clip0_1_240">
<rect width="11" height="11" fill="white" transform="translate(0.976395 0.573868)"/>
</clipPath>
</defs>
</svg>
