<svg width="19" height="18" viewBox="0 0 19 18" fill="none" xmlns="http://www.w3.org/2000/svg">
<path d="M9.97141 10.4243L7.35938 10.7783L7.73232 8.30304L14.4496 1.93932C14.7465 1.65803 15.1492 1.5 15.5691 1.5C15.989 1.5 16.3917 1.65803 16.6887 1.93932C16.9856 2.22062 17.1524 2.60213 17.1524 2.99994C17.1524 3.39775 16.9856 3.77927 16.6887 4.06056L9.97141 10.4243Z" stroke="#718096" stroke-linecap="round" stroke-linejoin="round"/>
<path d="M14.5136 10.5003V15.5C14.5136 15.7652 14.4024 16.0196 14.2045 16.2071C14.0065 16.3946 13.7381 16.5 13.4581 16.5H2.90304C2.6231 16.5 2.35463 16.3946 2.15669 16.2071C1.95874 16.0196 1.84753 15.7652 1.84753 15.5V5.50049C1.84753 5.23528 1.95874 4.98094 2.15669 4.79341C2.35463 4.60589 2.6231 4.50053 2.90304 4.50053H8.18058" stroke="#718096" stroke-linecap="round" stroke-linejoin="round"/>
</svg>
