<svg width="12" height="12" viewBox="0 0 12 12" fill="none" xmlns="http://www.w3.org/2000/svg">
<g clip-path="url(#clip0_1_289)">
<path d="M1.8931 5.90865C1.8931 7.12423 2.37598 8.29002 3.23552 9.14956C4.09507 10.0091 5.26085 10.492 6.47643 10.492C7.69201 10.492 8.8578 10.0091 9.71734 9.14956C10.5769 8.29002 11.0598 7.12423 11.0598 5.90865C11.0598 4.69308 10.5769 3.52729 9.71734 2.66774C8.8578 1.8082 7.69201 1.32532 6.47643 1.32532C5.26085 1.32532 4.09507 1.8082 3.23552 2.66774C2.37598 3.52729 1.8931 4.69308 1.8931 5.90865V5.90865Z" stroke="#1A202C" stroke-width="0.8" stroke-linecap="round" stroke-linejoin="round"/>
<path d="M5.55975 6.82532C5.55975 7.00662 5.61352 7.18385 5.71424 7.33459C5.81496 7.48534 5.95813 7.60283 6.12563 7.67221C6.29313 7.74159 6.47744 7.75974 6.65525 7.72437C6.83307 7.689 6.9964 7.6017 7.1246 7.4735C7.2528 7.3453 7.3401 7.18197 7.37547 7.00415C7.41084 6.82633 7.39269 6.64202 7.32331 6.47452C7.25393 6.30703 7.13644 6.16386 6.98569 6.06314C6.83495 5.96241 6.65772 5.90865 6.47642 5.90865C6.29512 5.90865 6.11789 5.85489 5.96715 5.75417C5.8164 5.65344 5.69891 5.51028 5.62953 5.34278C5.56015 5.17528 5.542 4.99097 5.57737 4.81315C5.61274 4.63534 5.70004 4.472 5.82824 4.3438C5.95644 4.21561 6.11977 4.1283 6.29759 4.09293C6.4754 4.05756 6.65971 4.07571 6.82721 4.14509C6.99471 4.21448 7.13788 4.33197 7.2386 4.48271C7.33933 4.63346 7.39309 4.81068 7.39309 4.99198" stroke="#1A202C" stroke-width="0.8" stroke-linecap="round" stroke-linejoin="round"/>
<path d="M6.47644 3.4642V4.07531" stroke="#1A202C" stroke-width="0.8" stroke-linecap="round" stroke-linejoin="round"/>
<path d="M6.47644 7.74198V8.35309" stroke="#1A202C" stroke-width="0.8" stroke-linecap="round" stroke-linejoin="round"/>
</g>
<defs>
<clipPath id="clip0_1_289">
<rect width="11" height="11" fill="white" transform="translate(0.976318 0.573868)"/>
</clipPath>
</defs>
</svg>
