<svg width="48" height="49" viewBox="0 0 48 49" fill="none" xmlns="http://www.w3.org/2000/svg">
<rect y="0.5" width="48" height="48" rx="24" fill="#FAFAFA"/>
<path d="M21.6667 16.3333C21.6667 15.7145 21.9125 15.121 22.3501 14.6834C22.7877 14.2458 23.3812 14 24 14C24.6188 14 25.2123 14.2458 25.6499 14.6834C26.0875 15.121 26.3333 15.7145 26.3333 16.3333C27.6731 16.9669 28.8153 17.953 29.6374 19.1862C30.4595 20.4193 30.9305 21.8529 31 23.3333V26.8333C31.0878 27.5587 31.3447 28.2532 31.7499 28.8611C32.1552 29.4691 32.6976 29.9733 33.3333 30.3333H14.6667C15.3024 29.9733 15.8448 29.4691 16.25 28.8611C16.6553 28.2532 16.9122 27.5587 17 26.8333V23.3333C17.0695 21.8529 17.5405 20.4193 18.3626 19.1862C19.1847 17.953 20.3268 16.9669 21.6667 16.3333" stroke="#1A202C" stroke-width="1.5" stroke-linecap="round" stroke-linejoin="round"/>
<path d="M20.5 30.3333V31.5C20.5 32.4283 20.8687 33.3185 21.5251 33.9749C22.1815 34.6313 23.0717 35 24 35C24.9283 35 25.8185 34.6313 26.4749 33.9749C27.1313 33.3185 27.5 32.4283 27.5 31.5V30.3333" stroke="#1A202C" stroke-width="1.5" stroke-linecap="round" stroke-linejoin="round"/>
<circle cx="33" cy="18.5" r="5.75" fill="#FF4747" stroke="#F7FAFC" stroke-width="1.5"/>
</svg>
